<svg width="27" height="39" viewBox="0 0 27 39" fill="none" xmlns="http://www.w3.org/2000/svg">
<path d="M13.4167 1.75H7.58333C6.03624 1.75 4.55251 2.36458 3.45854 3.45854C2.36458 4.55251 1.75 6.03624 1.75 7.58333C1.75 9.13043 2.36458 10.6142 3.45854 11.7081C4.55251 12.8021 6.03624 13.4167 7.58333 13.4167M13.4167 1.75V13.4167M13.4167 1.75H19.25C20.016 1.75 20.7746 1.90088 21.4823 2.19404C22.1901 2.48719 22.8331 2.91687 23.3748 3.45854C23.9165 4.00022 24.3461 4.64328 24.6393 5.35101C24.9324 6.05875 25.0833 6.81729 25.0833 7.58333C25.0833 8.34938 24.9324 9.10792 24.6393 9.81565C24.3461 10.5234 23.9165 11.1664 23.3748 11.7081C22.8331 12.2498 22.1901 12.6795 21.4823 12.9726C20.7746 13.2658 20.016 13.4167 19.25 13.4167M13.4167 13.4167H7.58333M13.4167 13.4167H19.25M13.4167 13.4167V25.0833M7.58333 13.4167C6.03624 13.4167 4.55251 14.0312 3.45854 15.1252C2.36458 16.2192 1.75 17.7029 1.75 19.25C1.75 20.7971 2.36458 22.2808 3.45854 23.3748C4.55251 24.4688 6.03624 25.0833 7.58333 25.0833M19.25 13.4167C18.484 13.4167 17.7254 13.5675 17.0177 13.8607C16.3099 14.1539 15.6669 14.5835 15.1252 15.1252C14.5835 15.6669 14.1539 16.3099 13.8607 17.0177C13.5675 17.7254 13.4167 18.484 13.4167 19.25C13.4167 20.016 13.5675 20.7746 13.8607 21.4823C14.1539 22.1901 14.5835 22.8331 15.1252 23.3748C15.6669 23.9165 16.3099 24.3461 17.0177 24.6393C17.7254 24.9324 18.484 25.0833 19.25 25.0833C20.016 25.0833 20.7746 24.9324 21.4823 24.6393C22.1901 24.3461 22.8331 23.9165 23.3748 23.3748C23.9165 22.8331 24.3461 22.1901 24.6393 21.4823C24.9324 20.7746 25.0833 20.016 25.0833 19.25C25.0833 18.484 24.9324 17.7254 24.6393 17.0177C24.3461 16.3099 23.9165 15.6669 23.3748 15.1252C22.8331 14.5835 22.1901 14.1539 21.4823 13.8607C20.7746 13.5675 20.016 13.4167 19.25 13.4167ZM7.58333 25.0833C6.03624 25.0833 4.55251 25.6979 3.45854 26.7919C2.36458 27.8858 1.75 29.3696 1.75 30.9167C1.75 32.4638 2.36458 33.9475 3.45854 35.0415C4.55251 36.1354 6.03624 36.75 7.58333 36.75C9.13043 36.75 10.6142 36.1354 11.7081 35.0415C12.8021 33.9475 13.4167 32.4638 13.4167 30.9167V25.0833M7.58333 25.0833H13.4167" stroke="#1E1E1E" stroke-width="3.5" stroke-linecap="round" stroke-linejoin="round"/>
</svg>
